PathFileType	4	(X/Y/Z)	TVC_20_BWA5_walk_RCNL2025.trc
DataRate	CameraRate	NumFrames	NumMarkers	Units	OrigDataRate	OrigDataStartFrame	OrigNumFrames
100	100	6	27	mm	100	138	220
Frame#	Time	R_Shoulder			L_Shoulder			C7			J_Notch			R_Elbow			L_Elbow			R_Wrist			L_Wrist			R_Asis			L_Asis			R_Psis			L_Psis			Sacral			Thoracic			Sternum			R_Thigh_Lateral			R_Knee_Lateral			R_Shank_Lateral			R_Ankle_Lateral			R_Heel			R_Toe			L_Thigh_Lateral			L_Knee_Lateral			L_Shank_Lateral			L_Ankle_Lateral			L_Heel			L_Toe		
		X1	Y1	Z1	X2	Y2	Z2	X3	Y3	Z3	X4	Y4	Z4	X5	Y5	Z5	X6	Y6	Z6	X7	Y7	Z7	X8	Y8	Z8	X9	Y9	Z9	X10	Y10	Z10	X11	Y11	Z11	X12	Y12	Z12	X13	Y13	Z13	X14	Y14	Z14	X15	Y15	Z15	X16	Y16	Z16	X17	Y17	Z17	X18	Y18	Z18	X19	Y19	Z19	X20	Y20	Z20	X21	Y21	Z21	X22	Y22	Z22	X23	Y23	Z23	X24	Y24	Z24	X25	Y25	Z25	X26	Y26	Z26	X27	Y27	Z27
138	1.37000000	-201.368088	1397.574463	377.504120	-280.466461	1418.495483	22.155262	-260.051300	1462.126587	215.228790	-156.405060	1323.530640	190.539017	-235.230270	1096.403320	498.945557	-392.635681	1121.059326	-63.267254	-61.516663	912.350098	434.355865	-285.080490	883.269897	-84.263672	-215.635437	1005.625244	341.016571	-235.686661	1010.650757	62.226700	-373.467407	1010.974854	258.503967	-393.266724	998.656616	169.017426	-383.367065	1004.815735	213.760696	-391.380371	1244.165161	219.321457	-156.166580	1180.580322	181.163940	-247.322998	666.599243	396.222778	-251.845642	472.696869	308.120789	-308.189117	297.386505	363.171631	-356.271576	73.514671	276.394440	-408.404785	52.098259	231.341171	-212.058685	34.441883	253.278976	-160.852859	664.984924	-16.077538	-87.148994	515.294373	50.423985	-155.100342	342.794495	-0.058752	-248.206528	116.002647	78.675354	-296.966339	116.809486	120.698769	-126.612885	55.624741	99.285675
139	1.38000000	-188.113129	1397.169800	376.871246	-266.985168	1417.280396	21.557467	-246.700348	1461.259399	214.510712	-143.138733	1322.213989	190.109634	-219.857162	1096.339966	499.245667	-381.831818	1120.847168	-63.207417	-44.675867	914.600708	432.280228	-279.461548	880.779907	-85.352451	-203.497711	1004.644592	341.170959	-222.020935	1010.123474	62.158089	-360.989227	1010.026733	257.782959	-380.281952	997.643616	168.334076	-370.635590	1003.835175	213.058517	-378.459198	1243.549561	218.781219	-143.266525	1179.351074	181.448578	-240.011185	665.885986	395.856262	-250.110748	472.322876	307.926941	-307.754120	297.632965	362.964539	-356.409637	73.776535	275.985321	-408.409851	52.349922	230.922150	-212.036209	34.507465	253.343246	-142.477448	666.755615	-16.286341	-69.121727	517.461365	50.660728	-127.684227	341.102509	-0.465765	-204.979172	108.803162	78.033508	-253.803406	106.754974	120.223122	-80.104446	55.434471	98.399971
140	1.39000000	-174.904633	1396.368042	376.212921	-253.500671	1415.732056	20.922565	-233.387024	1460.028442	213.779190	-129.877914	1320.516113	189.663391	-204.494797	1095.879517	499.484619	-370.966309	1120.314697	-63.201935	-27.904420	916.428589	430.248688	-273.529625	878.203705	-86.361000	-191.355621	1003.377869	341.283081	-208.249939	1009.154358	62.014454	-348.448090	1008.678101	256.919159	-367.196960	996.163574	167.534180	-357.822525	1002.420837	212.226669	-365.540283	1242.560425	218.102280	-130.363190	1177.737915	181.685562	-232.311722	664.980957	395.349243	-248.116165	471.932190	307.779541	-307.272247	297.931580	362.818268	-356.539337	74.087334	275.590210	-408.397552	52.677605	230.477310	-212.083801	34.538502	253.388901	-125.499817	667.682312	-16.409397	-51.846935	518.867798	50.813030	-101.026131	339.426361	-1.007300	-161.673019	102.541214	77.335953	-210.396393	97.750351	119.685791	-33.926033	56.123428	97.703178
141	1.40000000	-161.742584	1395.195801	375.524170	-240.013611	1413.874756	20.240242	-220.108261	1458.458984	213.024719	-116.609512	1318.520020	189.254974	-189.146378	1095.041382	499.649384	-360.045746	1119.479858	-63.247562	-11.207430	917.833038	428.272217	-267.256645	875.552887	-87.281406	-179.212585	1001.850159	341.364563	-194.345154	1007.764282	61.814823	-335.831970	1006.960083	255.906784	-353.991852	994.250977	166.602478	-344.911911	1000.605530	211.254631	-352.612396	1241.216431	217.277695	-117.443390	1175.777710	181.872223	-224.300171	663.914551	394.769806	-245.790710	471.523010	307.673401	-306.740295	298.293579	362.739166	-356.641144	74.454819	275.202057	-408.357391	53.098713	229.992538	-212.198257	34.536949	253.412460	-110.002090	667.624695	-16.442839	-35.266491	519.511353	50.905357	-75.120331	337.750580	-1.643374	-118.580048	97.306160	76.590248	-167.036301	89.905479	119.106331	11.655564	57.697201	97.112267
142	1.41000000	-148.625870	1393.688110	374.799744	-226.521561	1411.738525	19.498930	-206.859741	1456.583618	212.236252	-103.346840	1316.245728	188.879196	-173.819351	1093.853394	499.726532	-349.071167	1118.364624	-63.343914	5.406672	918.820801	426.362259	-260.616585	872.839691	-88.109825	-167.070038	1000.088501	341.426178	-180.278152	1005.981689	61.579746	-323.128021	1004.912476	254.743362	-340.647919	991.950806	165.526260	-331.887970	998.431641	210.134811	-339.662598	1239.543457	216.303040	-104.490257	1173.515503	182.006790	-216.072693	662.718079	394.207245	-243.055374	471.088654	307.599091	-306.088745	298.711700	362.713959	-356.692383	74.882980	274.806488	-408.273041	53.630020	229.448364	-212.361298	34.508373	253.413910	-95.912201	666.495850	-16.409250	-19.306295	519.413086	50.969189	-49.945633	336.058685	-2.326059	-76.038124	93.138084	75.808357	-124.065796	83.275978	118.506546	56.337849	60.120548	96.530609
143	1.42000000	-135.551483	1391.887573	374.033813	-213.018570	1409.357544	18.686167	-193.635529	1454.440918	211.401535	-90.116943	1313.691040	188.488815	-158.525452	1092.350830	499.702606	-338.036072	1116.994385	-63.493649	21.925953	919.405548	424.530640	-253.584442	870.076172	-88.846710	-154.926849	998.121643	341.477173	-166.022934	1003.841980	61.329819	-310.322784	1002.582642	253.430237	-327.148438	989.317627	164.296341	-318.735611	995.950134	208.863289	-326.676514	1237.573975	215.176712	-91.483818	1171.003784	182.087784	-207.715225	661.421631	393.750885	-239.828705	470.618011	307.544189	-305.186981	299.161560	362.708466	-356.668549	75.372978	274.384399	-408.123505	54.288799	228.821747	-212.541656	34.459675	253.397705	-82.996330	664.291321	-16.361858	-3.878800	518.618591	51.038227	-25.486954	334.344543	-3.006375	-34.421814	90.019554	75.009682	-81.870728	77.854454	117.911484	99.789322	63.316868	95.870804
